PathFileType	4	(X/Y/Z)	C:/Users/opensim2020/Desktop/walking_exp_matlab/subject06_walking15_straight_04.trc	
DataRate	CameraRate	NumFrames	NumMarkers	Units	OrigDataRate	OrigDataStartFrame	OrigNumFrames	
100.00	100.00	9	47	mm	100.00	2940	157	
Frame#	Time	LFHD			RFHD			LBHD			RBHD			C7			T10			CLAV			STRN			RBAK			LSHO			LUPA			LELB			LFRM			LWRA			LWRB			LFIN			RSHO			RUPA			RELB			RFRM			RWRA			RWRB			RFIN			LASI			RASI			LPSI			RPSI			LTHI			LKNE			LTIB			LANK			LHEE			LTOE			RTHI			RKNE			RTIB			RANK			RHEE			RTOE			*39			*40			*41			*42			*43			*44			*45			*46			
		X1	Y1	Z1	X2	Y2	Z2	X3	Y3	Z3	X4	Y4	Z4	X5	Y5	Z5	X6	Y6	Z6	X7	Y7	Z7	X8	Y8	Z8	X9	Y9	Z9	X10	Y10	Z10	X11	Y11	Z11	X12	Y12	Z12	X13	Y13	Z13	X14	Y14	Z14	X15	Y15	Z15	X16	Y16	Z16	X17	Y17	Z17	X18	Y18	Z18	X19	Y19	Z19	X20	Y20	Z20	X21	Y21	Z21	X22	Y22	Z22	X23	Y23	Z23	X24	Y24	Z24	X25	Y25	Z25	X26	Y26	Z26	X27	Y27	Z27	X28	Y28	Z28	X29	Y29	Z29	X30	Y30	Z30	X31	Y31	Z31	X32	Y32	Z32	X33	Y33	Z33	X34	Y34	Z34	X35	Y35	Z35	X36	Y36	Z36	X37	Y37	Z37	X38	Y38	Z38	X39	Y39	Z39	X40	Y40	Z40	X41	Y41	Z41	X42	Y42	Z42	X43	Y43	Z43	X44	Y44	Z44	X45	Y45	Z45	X46	Y46	Z46	X47	Y47	Z47	

79	0.780	-925.61554	186.49150	1627.18066	-1055.65430	161.39357	1623.92188	-954.49884	319.73264	1580.57935	-1081.32104	292.98041	1582.26697	-1013.74609	316.81003	1423.45691	-1026.42871	352.63953	1093.68994	-1003.76593	207.57433	1344.86377	-1004.60193	169.26192	1172.62244	-1105.37415	386.18948	1258.08569	-848.41791	284.92355	1371.33276	-790.98120	346.42590	1177.45544	-788.16425	386.73911	1071.62512	-762.68561	412.87683	924.56812	-783.31976	375.91870	795.17657	-770.06848	444.69479	809.29352	-756.87653	430.18219	720.45355	-1167.84827	237.82719	1381.99365	-1270.47852	253.28674	1189.07275	-1289.04688	223.05334	1075.36938	-1293.48511	143.82050	990.72900	-1233.82239	18.42840	926.18024	-1283.03076	50.64221	893.14014	-1269.67017	-25.17677	859.67871	-920.59460	164.26511	940.54706	-1139.82788	178.67542	941.32147	-935.97369	324.86307	961.01581	-1103.57971	328.45950	965.93115	-847.56073	168.55093	627.82965	-879.47925	110.87352	478.81610	-888.43988	72.06106	226.19896	-928.08856	17.26070	62.25171	-977.51495	47.94625	41.45653	-923.64496	-129.62906	65.84659	-1182.44971	293.72180	611.72351	-1162.74146	324.44815	487.73822	-1154.92590	482.25653	265.19336	-1107.52356	578.24615	104.50866	-1063.03821	624.87146	96.15198	-1104.49072	444.97134	29.26208	-1000.44379	271.26031	1674.84570																					 
80	0.790	-924.75800	175.00389	1627.16650	-1054.93164	150.14142	1623.86499	-953.29974	308.20810	1580.21680	-1080.20911	281.74707	1581.84265	-1012.47900	305.52252	1423.11646	-1024.96338	340.00266	1093.13757	-1002.65265	195.84486	1344.68726	-1003.36707	157.03905	1172.40088	-1103.57410	374.66583	1257.26013	-847.01257	272.70181	1371.11780	-789.67670	334.13120	1177.13354	-786.92340	374.67896	1071.39087	-761.62762	401.47952	924.43970	-782.74426	365.61459	794.82837	-769.10236	434.18274	809.28143	-756.20148	420.23233	720.39429	-1166.72412	226.71761	1381.59277	-1269.00562	242.95676	1188.59802	-1287.66101	213.59250	1074.71765	-1292.33240	134.57384	989.95337	-1233.02344	9.06361	925.36652	-1282.01428	41.50143	892.23114	-1268.91150	-34.30241	858.73914	-919.49622	151.65941	940.45483	-1138.72009	166.19083	940.89514	-933.88208	311.44067	960.87714	-1102.17810	315.95255	965.44550	-847.85815	154.86365	628.47076	-878.45111	97.75229	479.64697	-888.92871	62.73082	226.29726	-927.73322	14.46153	62.10071	-977.39697	45.98759	43.18719	-925.33051	-133.08989	55.33939	-1181.66089	281.05917	610.85229	-1162.25696	311.28561	486.75458	-1155.26221	473.95770	267.61240	-1108.78491	574.72522	109.72778	-1064.69543	621.69086	103.33189	-1104.50476	444.75214	29.33212	-999.49957	260.09500	1674.50659																					 
81	0.800	-923.91382	163.55237	1627.91895	-1054.15137	139.02570	1624.56580	-952.09802	296.68848	1580.44897	-1079.03052	270.53214	1582.02002	-1010.78564	293.93158	1423.47290	-1023.85693	327.63528	1093.14832	-1001.48590	184.04950	1345.20825	-1002.09546	145.14851	1172.68140	-1101.44543	363.02704	1256.92798	-845.43634	260.52847	1371.28003	-788.22626	321.58771	1177.06592	-785.50311	362.20554	1071.32581	-760.44867	389.50171	924.44281	-782.15100	354.50421	794.69794	-768.02222	422.92368	809.66016	-755.24030	409.87860	720.57446	-1165.69836	215.51447	1381.63037	-1267.58997	232.89032	1188.33557	-1286.32227	204.20821	1074.32190	-1291.11194	125.66991	989.18854	-1232.28503	0.16676	924.29498	-1281.03455	32.88752	891.12573	-1268.23132	-42.82543	857.44116	-918.21533	138.96605	940.97919	-1137.47498	153.52406	940.76373	-932.61804	299.05234	961.69659	-1101.10547	303.21448	965.40680	-847.74969	141.22026	629.98822	-877.28400	84.72844	481.34280	-887.49835	53.57158	227.48135	-926.77429	10.87728	61.88742	-976.20068	43.68492	44.66991	-926.07825	-136.40952	49.36591	-1180.78845	267.59421	610.24658	-1161.63367	297.27832	485.93552	-1155.15344	465.17224	270.72858	-1109.81335	570.06653	115.52728	-1065.89905	617.09503	111.26160	-1104.37317	444.32404	29.29309	-998.46759	248.99306	1674.85144																					 
82	0.810	-923.06128	152.07458	1629.21143	-1053.24084	127.87334	1625.74207	-950.85736	285.21860	1581.37695	-1077.86780	259.21518	1582.84216	-1009.49548	282.34158	1424.56433	-1022.79633	315.37415	1093.74829	-1000.30646	172.46031	1346.20325	-1000.69800	133.16634	1173.66309	-1099.44006	351.47174	1257.24036	-843.85529	248.29565	1371.96570	-786.61072	308.65897	1177.34692	-783.93195	349.25497	1071.53870	-759.10883	376.89755	924.71027	-781.53479	342.60794	794.78003	-766.84326	410.78867	810.10211	-754.66254	397.97397	721.00421	-1164.72229	204.21133	1382.18884	-1266.11926	222.83659	1188.54883	-1284.97644	195.00540	1074.33801	-1289.85547	117.08067	988.57275	-1231.53650	-8.17369	922.94775	-1280.09985	24.90909	889.85767	-1267.65942	-50.59545	855.93713	-916.71704	126.10881	942.28113	-1136.03467	140.92912	941.26703	-932.21509	287.39951	963.28918	-1100.32910	290.51349	965.73987	-847.38965	127.50912	632.61719	-876.09314	71.35710	483.56848	-885.35352	45.19579	228.95697	-925.76080	6.98284	62.08097	-974.80627	41.64839	46.82105	-925.62964	-139.70163	45.59517	-1179.89624	253.43814	610.01160	-1161.02234	282.06192	485.36081	-1154.93665	455.24121	274.40933	-1110.65613	564.73401	122.43794	-1066.59619	611.21143	120.18111	-1104.11072	443.75876	29.29388	-997.46173	237.91438	1675.87512																					 
83	0.820	-922.15479	140.54265	1630.70032	-1052.42078	116.63776	1627.17139	-949.61884	273.64932	1582.78333	-1076.71240	248.09149	1584.20959	-1008.05859	270.49597	1426.00134	-1021.74194	303.16223	1094.88977	-999.09625	160.84955	1347.60803	-999.22272	121.27454	1175.23987	-1097.75073	339.70111	1258.17664	-842.35571	235.96736	1373.14880	-784.98126	295.37463	1178.04602	-782.22375	335.61856	1072.05640	-757.62158	363.35867	925.28625	-780.96283	329.83011	795.32129	-765.34033	397.75943	810.84387	-753.61713	385.54788	721.64026	-1163.71228	192.70523	1383.27539	-1264.42944	213.01068	1189.39758	-1283.52637	185.81662	1074.89478	-1288.53662	108.76468	988.18060	-1230.82507	-16.02950	921.36273	-1278.91687	17.93873	888.44135	-1267.20044	-57.55342	854.03802	-915.18518	113.38097	944.33289	-1134.37927	128.10478	942.32300	-931.58417	274.93729	964.96368	-1099.69824	277.99393	966.46741	-846.90613	113.81488	635.80481	-874.58429	58.23700	485.89709	-883.39752	37.42046	230.28148	-924.93616	3.87483	62.31593	-973.61646	39.69930	48.20919	-924.92615	-142.00418	42.09979	-1178.90906	238.62180	609.97876	-1160.71667	265.67584	484.98499	-1154.67126	444.12546	278.59976	-1110.64124	558.00342	129.96535	-1066.40369	603.86646	130.11932	-1103.63660	443.47110	29.45709	-996.39087	226.51263	1677.27417																					 
84	0.830	-921.21106	129.05890	1632.47278	-1051.49512	105.39617	1628.77588	-948.34875	262.14319	1584.53796	-1075.42249	236.86319	1585.79199	-1006.58984	258.83749	1427.69543	-1020.70288	291.23581	1096.54321	-997.92853	149.28738	1349.34375	-997.79358	109.36267	1177.12390	-1096.27417	327.97507	1259.63916	-840.99701	223.73541	1374.81067	-783.32001	281.85849	1179.16248	-780.44696	321.56241	1073.02356	-756.03937	349.16495	926.22339	-780.38342	316.24866	796.23193	-763.45776	383.71674	811.93823	-752.56946	371.71484	722.54639	-1162.53394	181.07559	1384.82898	-1263.03430	203.14209	1191.00024	-1281.84802	176.64246	1076.01086	-1287.10498	100.75029	988.09680	-1230.13879	-23.37351	919.56580	-1277.88452	11.41426	886.93872	-1266.82275	-63.77734	851.82495	-913.66730	100.94106	946.96411	-1132.59192	115.42674	943.85022	-930.84601	262.57224	966.94000	-1098.93896	265.34085	967.42700	-845.74213	100.41994	638.92834	-873.42352	46.55874	487.81427	-881.41736	29.87338	230.93156	-924.67377	2.12986	62.19547	-972.93732	38.75265	48.77483	-925.33911	-143.45453	39.97033	-1178.23560	223.14366	610.24048	-1160.91638	248.12990	484.79050	-1154.40320	431.52502	283.09955	-1110.31580	550.17798	138.55629	-1065.70093	594.73779	141.21640	-1102.98157	443.20602	29.64577	-995.32141	215.06773	1678.97766																					 
85	0.840	-920.24658	117.59534	1634.39355	-1050.56079	94.12698	1630.57068	-947.13965	250.79945	1586.50110	-1074.34692	225.70500	1587.63245	-1005.51758	247.52591	1429.42932	-1019.69525	279.54288	1098.48279	-996.69489	137.57343	1351.29456	-996.47583	97.38843	1179.20984	-1094.96130	316.15137	1261.35461	-839.72791	211.50934	1376.89526	-781.70166	268.21194	1180.70020	-778.66150	307.23746	1074.39075	-754.31042	334.23279	927.54938	-779.54230	301.51920	797.60370	-761.31012	368.74362	813.29901	-751.54083	356.77051	723.74414	-1161.24390	169.66624	1386.79248	-1261.17114	193.06822	1192.88928	-1279.93298	167.47461	1077.62866	-1285.64905	92.93982	988.32001	-1229.41040	-30.17881	917.57532	-1276.84180	5.55713	885.39038	-1266.51404	-69.26334	849.28632	-912.08087	88.84609	949.92584	-1130.71509	102.95723	945.58337	-930.05505	250.22581	968.99084	-1097.99487	252.83856	968.68030	-844.15924	88.00049	641.33289	-872.78003	36.10340	489.29953	-880.12622	23.46416	231.24268	-924.84442	0.94959	62.33216	-972.72955	38.25495	49.17534	-926.57935	-144.56728	38.94895	-1177.92480	206.94731	610.61475	-1161.77026	229.50404	484.80862	-1154.28577	417.58673	287.98608	-1109.87610	540.75897	147.79976	-1064.54187	583.64960	153.09866	-1102.23694	442.94070	29.93043	-994.28168	203.71167	1680.87671																					 
86	0.850	-919.26611	106.23312	1636.33997	-1049.56738	82.93088	1632.50635	-945.99274	239.44902	1588.48242	-1073.44543	214.70395	1589.77100	-1004.13275	236.00504	1431.03857	-1018.43567	267.49207	1100.38965	-995.55975	125.94278	1353.37805	-995.19025	85.09270	1181.47888	-1093.72876	304.31985	1263.20093	-838.52899	199.42088	1379.21252	-780.10376	254.46109	1182.61145	-776.83392	292.72882	1076.08228	-752.25641	318.78979	929.17700	-778.90289	286.29373	799.26752	-758.94006	352.75174	814.77295	-750.27344	340.94888	725.08112	-1159.86475	158.36992	1388.94812	-1259.62500	182.97264	1195.21057	-1277.86560	158.38130	1079.54163	-1284.14893	85.37801	988.67389	-1228.66406	-36.51148	915.35797	-1275.78601	0.19380	883.76569	-1266.25842	-73.97105	846.45386	-910.36243	76.89667	952.89038	-1128.70422	90.81492	947.41418	-929.39435	238.41245	971.21521	-1096.71655	240.44688	970.07764	-842.78015	76.86411	643.03558	-872.21686	26.19232	490.57098	-879.86334	18.13757	231.68468	-925.03497	-0.32060	62.66104	-972.53833	37.69072	49.55158	-927.98108	-145.70728	38.11071	-1177.95251	190.30923	611.05359	-1163.13562	209.99989	484.71185	-1154.40723	402.27573	292.96085	-1109.48438	529.35651	156.96112	-1063.34485	570.47455	164.89476	-1101.53955	441.89709	30.69613	-993.18066	192.43158	1682.87817																					 
87	0.860	-918.26392	94.91918	1638.19373	-1048.53015	71.83386	1634.34106	-944.85742	228.18622	1590.48816	-1072.30676	203.52882	1591.78210	-1002.93066	224.76204	1432.75952	-1017.00006	255.75636	1102.41284	-994.42322	114.21780	1355.44006	-994.06531	73.04512	1183.72632	-1092.49609	292.62286	1265.12451	-837.42596	187.37672	1381.66150	-778.41016	240.77850	1184.74341	-774.96069	278.10022	1077.98059	-750.43695	302.77335	930.77966	-777.81403	269.22968	801.22321	-756.19049	336.06168	816.48022	-748.96155	323.88455	726.57245	-1158.49756	147.23758	1391.15698	-1258.14526	172.85649	1197.65186	-1275.80225	149.32967	1081.56006	-1282.70544	78.07842	989.05627	-1227.94141	-42.43221	912.86072	-1274.84448	-4.74910	882.06439	-1265.84509	-78.08592	843.18658	-908.63171	65.08092	955.49963	-1126.68396	79.05991	949.19531	-928.15411	226.18471	973.26526	-1095.19128	228.23093	971.46808	-841.78564	67.01437	644.16809	-871.45905	17.04371	491.36615	-880.05573	13.51024	232.37373	-925.46490	-1.38441	62.90187	-972.57404	37.14307	49.98540	-928.74982	-146.44856	37.33089	-1178.21399	173.37564	611.42090	-1164.77429	190.12881	484.61938	-1154.68384	385.54846	297.80557	-1109.34363	516.32928	165.78223	-1062.50134	555.90143	176.33946	-1101.09521	438.81958	32.64494	-992.08398	181.20825	1684.83887																					 
